<?xml version="1.0" encoding="utf-8"?>
<!-- Generator: Adobe Illustrator 22.1.0, SVG Export Plug-In . SVG Version: 6.00 Build 0)  -->
<svg version="1.1" id="Layer_1" xmlns="http://www.w3.org/2000/svg" xmlns:xlink="http://www.w3.org/1999/xlink" x="0px" y="0px"
	 viewBox="0 0 591 141.7" style="enable-background:new 0 0 591 141.7;" xml:space="preserve">
<style type="text/css">
	.st0{fill:#1B1464;}
	.st1{clip-path:url(#SVGID_2_);fill:url(#SVGID_3_);}
	.st2{filter:url(#Adobe_OpacityMaskFilter);}
	.st3{clip-path:url(#SVGID_6_);}
	.st4{enable-background:new    ;}
	.st5{clip-path:url(#SVGID_8_);}
	.st6{clip-path:url(#SVGID_10_);fill:url(#SVGID_11_);}
	.st7{clip-path:url(#SVGID_13_);fill:url(#SVGID_14_);}
	.st8{clip-path:url(#SVGID_16_);fill:url(#SVGID_17_);}
	.st9{mask:url(#SVGID_4_);}
	.st10{clip-path:url(#SVGID_19_);fill:#442682;}
</style>
<g>
	<g>
		<path class="st0" d="M294.8,72.2V60.3h16.6V44.9h-17V30.2h-14.3h-3.6v20v19.4c0,19.3,15.7,35,35,35V88.9
			C302.3,88.9,294.8,81.4,294.8,72.2"/>
		<path class="st0" d="M466.9,44.3c-4.4,0-8.3,1.1-11.9,3.3c-3.6,2.2-6.4,5.2-8.5,8.9c-1.8-3.9-4.4-6.9-7.9-9
			c-3.5-2.1-7.5-3.2-12.1-3.2c-4.4,0-8.2,1-11.4,2.9c-3.2,1.9-5.5,4.4-7.1,7.6v-10h-18.5v20h0v39.9h18.3V72.9c0-4.1,1.1-7.3,3.2-9.5
			c2.1-2.2,5-3.3,8.7-3.3c3.5,0,6.2,1,8.2,3.2c2,2.1,3,5.1,3,8.8v32.5h18.3V72.9c0-4.1,1.1-7.2,3.2-9.5c2.1-2.2,5-3.4,8.6-3.4
			c3.5,0,6.3,1,8.3,3.2c2,2.1,3,5.1,3,8.8v32.5h18.2V69.9c0-8.1-2.1-14.4-6.3-18.9C480,46.5,474.3,44.3,466.9,44.3"/>
		<rect x="502" y="44.9" class="st0" width="18.3" height="59.7"/>
		<path class="st0" d="M349.8,43.7c-17.1,0-30.9,13.8-30.9,30.9c0,17.1,13.8,30.9,30.9,30.9c17.1,0,30.9-13.8,30.9-30.9
			C380.7,57.5,366.8,43.7,349.8,43.7 M349.8,90.6c-8.8,0-16-7.2-16-16c0-8.8,7.2-16,16-16c8.8,0,16,7.1,16,16
			C365.7,83.4,358.6,90.6,349.8,90.6"/>
		<path class="st0" d="M574.6,81.4c-2.5,5.4-8.1,9.2-14.5,9.2c-8.8,0-16-7.2-16-16c0-8.8,7.2-16,16-16c6.3,0,11.7,3.6,14.3,8.9h15.8
			c-3.2-13.6-15.5-23.8-30.1-23.8c-17.1,0-30.9,13.8-30.9,30.9c0,17.1,13.8,30.9,30.9,30.9c14.7,0,27.1-10.3,30.2-24.2H574.6z"/>
		<path class="st0" d="M247.8,49.3c-5.4-4.4-12.4-7.1-19.9-7.1c-17.5,0-31.6,14.2-31.6,31.6s14.2,31.6,31.6,31.6
			c7.6,0,14.5-2.6,19.9-7.1v6.1h16.4V44.8h-16.4V49.3z M227.9,89c-8.4,0-15.1-6.8-15.1-15.1c0-8.3,6.8-15.1,15.1-15.1
			c8.3,0,15.1,6.8,15.1,15.1C243,82.2,236.3,89,227.9,89"/>
		<path class="st0" d="M510.8,17.1c-5.7,0-10.3,4.6-10.3,10.3c0,5.7,4.6,10.3,10.3,10.3c5.7,0,10.3-4.6,10.3-10.3
			C521.1,21.8,516.5,17.1,510.8,17.1"/>
	</g>
	<g>
		<defs>
			<path id="SVGID_1_" d="M69,1.2c-9.5,3.7-14.6,16-14.9,32.3c0,2.4,0,4.9,0.2,7.5c0.6,8,2.8,22.2,10.1,41.8c3.5,1,6.1,4.2,6.1,8
				c0,4.6-3.7,8.4-8.4,8.4c-4.6,0-8.4-3.7-8.4-8.4c0-1.8,0.6-3.5,1.6-4.8c-2.7-6.3-7.2-18.7-9.5-34.7c-3,2.2-5.9,4.6-8.9,7.1
				C6.6,84.7-8,117.7,4.4,131.9c9.3,10.7,31,7.9,54.1-5.3c0,0,0,0,0,0s20.5-12.1,34.5-27.4c-0.2-0.7-0.3-1.4-0.3-2.1
				c0-4.6,3.7-8.4,8.4-8.4c4.6,0,8.4,3.7,8.4,8.4c0,4.6-3.7,8.4-8.4,8.4c-0.1,0-0.2,0-0.2,0c-4.9,5.5-16.7,17.9-30.9,26.2
				c4.2,1.6,8.6,3.1,13.2,4.4c38.7,11.1,74.2,5.4,79.5-12.8c2.8-9.8-3.8-21.3-16.6-31.5c-0.1-0.1-0.3-0.2-0.4-0.3
				c-3.1-2.4-6.6-4.8-10.3-7.1c0,0,0-0.1,0-0.1c-15.5-9.2-33.2-14.2-42.5-16.4c-1.5,1.5-3.6,2.4-5.8,2.4c-4.6,0-8.4-3.7-8.4-8.4
				c0-4.6,3.7-8.4,8.4-8.4c3.3,0,6.1,1.9,7.5,4.6c15.5,3.2,28.2,8,37.8,12.5c-1.3-4.7-2.9-9.4-4.8-14.2C114.4,23.2,92.3,0,75.2,0
				C73,0,70.9,0.4,69,1.2"/>
		</defs>
		<clipPath id="SVGID_2_">
			<use xlink:href="#SVGID_1_"  style="overflow:visible;"/>
		</clipPath>
		
			<radialGradient id="SVGID_3_" cx="-664.624" cy="632.317" r="1" gradientTransform="matrix(66.0199 66.0199 66.0199 -66.0199 2218.147 85709.3359)" gradientUnits="userSpaceOnUse">
			<stop  offset="0" style="stop-color:#9561FF"/>
			<stop  offset="0.2049" style="stop-color:#915BFD"/>
			<stop  offset="0.4652" style="stop-color:#844CF6"/>
			<stop  offset="0.7543" style="stop-color:#6F32EA"/>
			<stop  offset="1" style="stop-color:#5916DE"/>
		</radialGradient>
		<polygon class="st1" points="78.8,-86.7 239.1,73.6 78.8,233.9 -81.5,73.6 		"/>
	</g>
	<g>
		<defs>
			<filter id="Adobe_OpacityMaskFilter" filterUnits="userSpaceOnUse" x="0" y="0" width="163.3" height="141.7">
				<feColorMatrix  type="matrix" values="1 0 0 0 0  0 1 0 0 0  0 0 1 0 0  0 0 0 1 0"/>
			</filter>
		</defs>
		<mask maskUnits="userSpaceOnUse" x="0" y="0" width="163.3" height="141.7" id="SVGID_4_">
			<g class="st2">
				<g>
					<defs>
						<rect id="SVGID_5_" width="163.3" height="141.7"/>
					</defs>
					<clipPath id="SVGID_6_">
						<use xlink:href="#SVGID_5_"  style="overflow:visible;"/>
					</clipPath>
					<rect x="-8" y="-5.7" class="st3" width="173.5" height="152.9"/>
					<g class="st4">
						<g>
							<defs>
								<rect id="SVGID_7_" x="-8" y="-5.7" width="173.5" height="152.9"/>
							</defs>
							<clipPath id="SVGID_8_" class="st3">
								<use xlink:href="#SVGID_7_"  style="overflow:visible;"/>
							</clipPath>
							<g>
								<defs>
									<path id="SVGID_9_" d="M65.1,98.7c0,0-51.9,35.3-58.8,7.7C-0.5,78.7,46.8,47,46.8,47L65.1,98.7z"/>
								</defs>
								<clipPath id="SVGID_10_" class="st5">
									<use xlink:href="#SVGID_9_"  style="overflow:visible;"/>
								</clipPath>
								
									<linearGradient id="SVGID_11_" gradientUnits="userSpaceOnUse" x1="-664.624" y1="632.2672" x2="-663.624" y2="632.2672" gradientTransform="matrix(-8.2335 78.9046 78.9046 8.2335 -55324.6875 47288.3828)">
									<stop  offset="0" style="stop-color:#FFFFFF"/>
									<stop  offset="1" style="stop-color:#000000"/>
								</linearGradient>
								<polygon class="st6" points="74.1,48 64.4,140.8 -9.5,133.1 0.2,40.2 								"/>
							</g>
							<g>
								<defs>
									<path id="SVGID_12_" d="M78.7,63.1c0,0-14.7-61.2,13.1-54.6c24.7,5.9,43.6,65.9,43.6,65.9L78.7,63.1z"/>
								</defs>
								<clipPath id="SVGID_13_" class="st5">
									<use xlink:href="#SVGID_12_"  style="overflow:visible;"/>
								</clipPath>
								
									<linearGradient id="SVGID_14_" gradientUnits="userSpaceOnUse" x1="-664.624" y1="632.2369" x2="-663.624" y2="632.2369" gradientTransform="matrix(-59.9259 -60.6309 -60.6309 59.9259 -1371.8289 -78122.1016)">
									<stop  offset="0" style="stop-color:#FFFFFF"/>
									<stop  offset="1" style="stop-color:#000000"/>
								</linearGradient>
								<polygon class="st7" points="99.3,110.1 27.7,37.7 100.1,-33.8 171.6,38.6 								"/>
							</g>
							<g>
								<defs>
									<path id="SVGID_15_" d="M105,90.3c0,0,55.9,25.6,34.1,45c-21.8,19.4-72.2-4-72.2-4L105,90.3z"/>
								</defs>
								<clipPath id="SVGID_16_" class="st5">
									<use xlink:href="#SVGID_15_"  style="overflow:visible;"/>
								</clipPath>
								
									<linearGradient id="SVGID_17_" gradientUnits="userSpaceOnUse" x1="-664.624" y1="632.2578" x2="-663.624" y2="632.2578" gradientTransform="matrix(97.087 2.0584 2.0584 -97.087 63293.9922 62873.5586)">
									<stop  offset="0" style="stop-color:#FFFFFF"/>
									<stop  offset="1" style="stop-color:#000000"/>
								</linearGradient>
								<polygon class="st8" points="67,88.3 162.2,90.3 160.8,156.7 65.6,154.7 								"/>
							</g>
						</g>
					</g>
				</g>
			</g>
		</mask>
		<g class="st9">
			<g>
				<defs>
					<rect id="SVGID_18_" width="163.3" height="141.7"/>
				</defs>
				<clipPath id="SVGID_19_">
					<use xlink:href="#SVGID_18_"  style="overflow:visible;"/>
				</clipPath>
				<path class="st10" d="M162.7,123.2c-5.2,18.2-40.8,23.9-79.5,12.8c-4.6-1.3-9-2.8-13.2-4.4c14.3-8.3,26-20.6,30.9-26.2
					c0.1,0,0.2,0,0.2,0c4.6,0,8.4-3.7,8.4-8.4c0-4.6-3.7-8.4-8.4-8.4c-4.6,0-8.4,3.7-8.4,8.4c0,0.7,0.1,1.5,0.3,2.1
					c-14,15.3-34.5,27.4-34.5,27.4s0,0,0,0c-23.1,13.2-44.9,16-54.1,5.3C-8,117.7,6.6,84.7,37,58.3c2.9-2.5,5.9-4.9,8.9-7.1
					c2.3,16,6.8,28.4,9.5,34.7c-1,1.4-1.6,3-1.6,4.8c0,4.6,3.7,8.4,8.4,8.4s8.4-3.7,8.4-8.4c0-3.8-2.6-7.1-6.1-8
					C57.1,63.1,54.9,48.9,54.3,41c-0.2-2.6-0.2-5.1-0.2-7.5C54.4,17.1,59.5,4.9,69,1.2c17.6-6.9,43.8,17.9,58.5,55.3
					c1.9,4.8,3.5,9.5,4.8,14.2c-9.5-4.5-22.2-9.4-37.8-12.5c-1.4-2.7-4.2-4.6-7.5-4.6c-4.6,0-8.4,3.7-8.4,8.4c0,4.6,3.7,8.4,8.4,8.4
					c2.3,0,4.3-0.9,5.8-2.4c9.4,2.2,27,7.1,42.5,16.4c0,0,0,0.1,0,0.1c3.8,2.3,7.2,4.6,10.3,7.1c0.1,0.1,0.3,0.2,0.4,0.3
					C158.9,102,165.5,113.4,162.7,123.2"/>
			</g>
		</g>
	</g>
</g>
</svg>
